<?xml version="1.0" encoding="UTF-8"?>
<svg width="24px" height="24px" viewBox="0 0 24 24" version="1.1" xmlns="http://www.w3.org/2000/svg">
    <g stroke="none" stroke-width="1" fill="none" fill-rule="evenodd">
        <path d="M12,2 C6.48,2 2,6.48 2,12 C2,17.52 6.48,22 12,22 C17.52,22 22,17.52 22,12 C22,6.48 17.52,2 12,2 Z M12,20 C7.59,20 4,16.41 4,12 C4,7.59 7.59,4 12,4 C16.41,4 20,7.59 20,12 C20,16.41 16.41,20 12,20 Z" fill="#FFFFFF"/>
        <path d="M12,6 C9.79,6 8,7.79 8,10 C8,12.21 9.79,14 12,14 C14.21,14 16,12.21 16,10 C16,7.79 14.21,6 12,6 Z M12,12 C10.9,12 10,11.1 10,10 C10,8.9 10.9,8 12,8 C13.1,8 14,8.9 14,10 C14,11.1 13.1,12 12,12 Z" fill="#FFFFFF"/>
        <path d="M12,16 C9.33,16 5,17.34 5,20 L19,20 C19,17.34 14.67,16 12,16 Z M7,18 C7.8,17.4 9.8,17 12,17 C14.2,17 16.2,17.4 17,18 L7,18 Z" fill="#FFFFFF"/>
    </g>
</svg> 