<?xml version="1.0" encoding="UTF-8"?>
<svg width="24px" height="24px" viewBox="0 0 24 24" version="1.1" xmlns="http://www.w3.org/2000/svg">
    <g stroke="none" stroke-width="1" fill="none" fill-rule="evenodd">
        <path d="M12,14 C13.66,14 15,12.66 15,11 L15,5 C15,3.34 13.66,2 12,2 C10.34,2 9,3.34 9,5 L9,11 C9,12.66 10.34,14 12,14 Z M17.91,11 C17.91,14.17 15.17,16.91 12,16.91 C8.83,16.91 6.09,14.17 6.09,11 L4,11 C4,14.41 6.72,17.24 10,17.72 L10,21 L14,21 L14,17.72 C17.28,17.24 20,14.41 20,11 L17.91,11 Z" fill="#FFFFFF"/>
    </g>
</svg> 