<?xml version="1.0" encoding="UTF-8"?>
<svg width="200px" height="200px" viewBox="0 0 200 200" version="1.1" xmlns="http://www.w3.org/2000/svg">
    <g stroke="none" stroke-width="1" fill="none" fill-rule="evenodd">
        <!-- Shopping cart -->
        <path d="M60,160 C55.58,160 52,163.58 52,168 C52,172.42 55.58,176 60,176 C64.42,176 68,172.42 68,168 C68,163.58 64.42,160 60,160 Z M140,160 C135.58,160 132,163.58 132,168 C132,172.42 135.58,176 140,176 C144.42,176 148,172.42 148,168 C148,163.58 144.42,160 140,160 Z" fill="#4A90E2"/>
        <path d="M160,40 L40,40 L44,80 L156,80 L160,40 Z M156,80 L44,80 L48,120 L152,120 L156,80 Z" fill="#4A90E2"/>
        <!-- Price tag -->
        <path d="M120,60 L140,80 L120,100 L100,80 L120,60 Z" fill="#50E3C2"/>
        <text x="115" y="85" font-family="Arial" font-size="12" fill="white">$</text>
        <!-- Graph -->
        <path d="M30,140 L50,120 L70,130 L90,110 L110,125 L130,115" stroke="#4A90E2" stroke-width="4" fill="none"/>
    </g>
</svg> 