<?xml version="1.0" encoding="UTF-8"?>
<svg width="24px" height="24px" viewBox="0 0 24 24" version="1.1" xmlns="http://www.w3.org/2000/svg">
    <g stroke="none" stroke-width="1" fill="none" fill-rule="evenodd">
        <circle fill="#1976D2" cx="12" cy="12" r="12"/>
        <path d="M12,6 C14.209139,6 16,7.790861 16,10 C16,12.209139 14.209139,14 12,14 C9.790861,14 8,12.209139 8,10 C8,7.790861 9.790861,6 12,6 Z M12,8 C10.8954305,8 10,8.8954305 10,10 C10,11.1045695 10.8954305,12 12,12 C13.1045695,12 14,11.1045695 14,10 C14,8.8954305 13.1045695,8 12,8 Z" fill="#FFFFFF"/>
        <path d="M6,16 C6,13.790861 7.790861,12 10,12 L14,12 C16.209139,12 18,13.790861 18,16 L18,18 C18,18.5522847 17.5522847,19 17,19 L7,19 C6.44771525,19 6,18.5522847 6,18 L6,16 Z M8,16 L8,17 L16,17 L16,16 C16,14.8954305 15.1045695,14 14,14 L10,14 C8.8954305,14 8,14.8954305 8,16 Z" fill="#FFFFFF"/>
    </g>
</svg> 